<svg width="12" height="12" viewBox="0 0 12 12" fill="none" xmlns="http://www.w3.org/2000/svg">
<path fill-rule="evenodd" clip-rule="evenodd" d="M0.164752 0.164752C0.384422 -0.0549175 0.740578 -0.0549175 0.960248 0.164752L6 5.20425L11.0398 0.164752C11.2395 -0.0349475 11.552 -0.053102 11.7722 0.110289L11.8352 0.164752C12.0549 0.384422 12.0549 0.740578 11.8352 0.960248L6.79575 6L11.8352 11.0398C12.0349 11.2395 12.0531 11.552 11.8897 11.7722L11.8352 11.8352C11.6156 12.0549 11.2594 12.0549 11.0398 11.8352L6 6.79575L0.960248 11.8352C0.760548 12.0349 0.44805 12.0531 0.227841 11.8897L0.164752 11.8352C-0.0549175 11.6156 -0.0549175 11.2594 0.164752 11.0398L5.20425 6L0.164752 0.960248C-0.0349475 0.760548 -0.053102 0.44805 0.110289 0.227841L0.164752 0.164752Z" fill="#8C8C8C"/>
</svg>
