<svg width="20" height="20" viewBox="0 0 20 20" fill="none" xmlns="http://www.w3.org/2000/svg">
<path fill="currentColor" fill-rule="evenodd" clip-rule="evenodd" d="M10 0C4.4775 0 0 4.4775 0 10C0 15.5225 4.4775 20 10 20C15.5225 20 20 15.5225 20 10C19.9933 4.48 15.52 0.00666667 10 0ZM15.7725 6.83333L10.0683 14.5742C9.78833 14.9458 9.26 15.02 8.88833 14.74C8.88417 14.7367 8.88083 14.7342 8.87667 14.7308L4.80333 11.4742C4.44417 11.1867 4.38583 10.6617 4.67333 10.3025C4.96083 9.94333 5.48583 9.885 5.845 10.1725L9.24167 12.89L14.4308 5.8475C14.6858 5.46417 15.2033 5.36083 15.5867 5.61583C15.97 5.87083 16.0733 6.38833 15.8183 6.77167C15.8033 6.79333 15.7883 6.81333 15.7725 6.83333Z"/>
</svg>
